<svg viewBox="0 0 96 96" xmlns="http://www.w3.org/2000/svg" xmlns:xlink="http://www.w3.org/1999/xlink" id="Icons_Send" overflow="hidden"><path d="M74.4 73.3 56.4 67.1 56.3 67.1 49.1 64.6 82.8 20.1 74.4 73.3ZM51.9 69.9 45.3 76.5 47.1 68.3 51.9 69.9 51.9 69.9ZM43.9 64.8C43.7 65 43.6 65.3 43.5 65.6L43.2 66.9 41.2 76 36.4 62 73.8 26 45.1 63.3 43.9 64.8ZM15 53 73.6 21.8 33.5 59.3 15 53ZM87.2 11.4C86.6 10.9 85.7 10.9 85 11.3L9.1 51.6C8.4 52 8 52.7 8 53.5 8 54.3 8.6 55 9.3 55.2L30.1 62.3 32.7 63.2 33.3 64.9 39.5 83.5 39.5 83.6 39.5 83.7C39.7 84.3 40.3 84.8 41 85 41.7 85.2 42.4 85 42.9 84.5L43 84.4 43.6 83.8 56.2 71.4 75.4 78C76 78.2 76.6 78.1 77.1 77.8 77.6 77.5 78 77 78.1 76.4L88.1 13.4C88.2 12.5 87.8 11.8 87.2 11.4Z"/></svg>